<?xml version="1.0" standalone="no"?>
<!DOCTYPE svg PUBLIC "-//W3C//DTD SVG 20010904//EN"
 "http://www.w3.org/TR/2001/REC-SVG-20010904/DTD/svg10.dtd">
<svg version="1.0" xmlns="http://www.w3.org/2000/svg"
 width="812.000000pt" height="812.000000pt" viewBox="0 0 812.000000 812.000000"
 preserveAspectRatio="xMidYMid meet">
<metadata>
Created by potrace 1.11, written by Peter Selinger 2001-2013
</metadata>
<g transform="translate(0.000000,812.000000) scale(0.100000,-0.100000)"
fill="#000000" stroke="none">
<path d="M2459 8116 c-2 -2 -47 -6 -100 -10 -53 -4 -105 -8 -116 -10 -11 -3
-44 -7 -73 -11 -64 -8 -56 -7 -205 -40 -394 -89 -682 -276 -853 -555 -79 -129
-168 -364 -197 -520 -3 -14 -7 -36 -10 -50 -3 -14 -8 -45 -11 -70 -3 -25 -8
-56 -10 -70 -3 -14 -8 -47 -11 -75 -3 -27 -8 -1547 -10 -3377 l-3 -3328 793 0
793 0 1 3047 c0 1677 3 3064 7 3083 3 19 9 53 12 75 17 115 88 252 171 332 63
59 187 125 263 139 14 3 52 11 85 17 105 22 1112 14 1216 -9 174 -38 291 -84
403 -158 227 -149 379 -365 450 -641 3 -11 8 -33 11 -50 2 -16 7 -41 10 -55 7
-34 16 -150 17 -230 3 -208 -49 -436 -138 -605 -37 -70 -50 -90 -61 -98 -7 -4
-13 -13 -13 -19 0 -27 -138 -178 -245 -268 -87 -73 -301 -177 -375 -183 -11
-1 -20 -4 -20 -7 0 -3 -8 -6 -18 -7 -10 -1 -47 -7 -83 -14 -35 -6 -166 -13
-291 -14 l-228 -2 -1 26 c-1 14 -1 79 -1 145 l0 118 -45 -43 c-26 -24 -58 -57
-73 -74 -45 -49 -313 -331 -485 -509 -73 -77 -228 -239 -277 -292 l-30 -32 57
-58 c31 -33 116 -122 188 -198 73 -76 159 -167 192 -201 33 -35 130 -136 215
-225 234 -246 248 -260 253 -260 3 0 5 61 4 135 0 74 1 137 4 139 2 3 79 7
169 10 198 7 347 17 455 31 17 2 50 6 75 9 25 3 63 9 85 12 22 3 51 8 65 9 60
8 145 22 145 25 0 1 9 3 20 5 118 17 344 80 480 135 172 68 426 205 567 305
31 22 66 47 79 55 23 16 86 67 159 131 25 21 48 39 52 39 5 0 8 4 8 8 0 4 33
41 73 82 201 208 370 480 475 765 39 108 85 266 96 335 3 19 8 46 11 60 3 14
8 41 10 60 3 19 7 44 10 55 26 123 26 589 0 790 -30 229 -96 488 -172 670 -41
99 -114 249 -132 269 -9 10 -16 21 -15 25 1 7 -18 39 -57 98 -16 23 -29 44
-29 47 0 5 -118 166 -129 176 -3 3 -31 34 -61 70 -84 99 -169 181 -315 305
-16 14 -64 49 -105 77 -41 29 -77 54 -80 58 -3 3 -16 11 -30 18 -27 13 -62 34
-70 42 -11 11 -145 75 -152 72 -5 -1 -8 2 -8 7 0 5 -8 11 -17 14 -10 3 -52 20
-93 37 -124 53 -322 115 -430 136 -25 4 -72 15 -100 21 -8 2 -33 6 -55 8 -22
2 -51 6 -64 9 -13 3 -49 8 -80 11 -31 4 -67 9 -81 13 -27 6 -1914 15 -1921 8z"/>
<path d="M5465 3076 c-144 -74 -365 -154 -515 -185 -132 -28 -188 -40 -221
-45 -20 -3 -42 -8 -50 -10 -8 -3 -36 -8 -64 -10 -27 -3 -61 -8 -75 -10 -14 -3
-52 -8 -85 -11 -33 -3 -78 -7 -100 -10 -63 -8 -141 -14 -260 -20 -60 -4 -111
-8 -113 -10 -2 -2 25 -59 61 -127 36 -67 84 -161 108 -208 24 -47 46 -87 49
-90 3 -3 39 -72 80 -155 41 -82 77 -152 80 -155 3 -3 27 -48 54 -100 27 -52
66 -126 86 -165 56 -105 83 -159 82 -165 0 -3 5 -12 12 -20 7 -8 32 -55 57
-105 24 -49 46 -92 49 -95 4 -3 23 -39 44 -80 64 -126 248 -478 366 -700 39
-74 85 -162 101 -195 17 -33 51 -98 76 -145 24 -47 65 -124 90 -173 l45 -87
914 0 c612 0 914 3 914 10 0 6 -51 101 -113 213 -116 206 -170 302 -194 347
-52 93 -170 305 -241 432 -12 21 -38 68 -58 105 -21 37 -50 90 -66 116 -15 26
-28 50 -28 53 0 2 -11 21 -23 42 -13 20 -41 69 -61 107 -21 39 -45 84 -55 100
-10 17 -31 55 -48 85 -16 30 -42 76 -57 103 -14 26 -37 67 -51 92 -44 79 -77
138 -120 215 -42 74 -64 115 -133 240 -19 36 -44 77 -54 93 -11 15 -16 27 -12
27 4 0 1 8 -7 18 -14 17 -21 28 -60 100 -11 20 -36 64 -55 97 -19 33 -51 91
-72 129 -20 38 -44 81 -52 95 -67 118 -128 228 -143 257 -9 19 -18 34 -20 33
-1 -1 -29 -15 -62 -33z"/>
</g>
</svg>
